<svg 
          width="33.270843505859375" 
          height="37.57539367675781" fill="none" 
          xmlns="http://www.w3.org/2000/svg">
          <path d="M 23.07117710834659 37.57539367675781 L 10.199665386373592 37.57539367675781 C 2.6718458300298087 37.57539367675781 0 32.295318743829625 0 27.37573007281108 L 0 10.19966461508585 C 0 2.8626915637119765 2.8626917801856537 0 10.199665386373592 0 L 23.07117710834659 0 C 30.40815071453453 0 33.270843505859375 2.8626915637119765 33.270843505859375 10.19966461508585 L 33.270843505859375 27.37573007281108 C 33.270843505859375 34.712703124184955 30.40815071453453 37.57539367675781 23.07117710834659 37.57539367675781 Z M 10.199665386373592 3.2231788367607273 C 4.665127776158129 3.2231788367607273 3.2231790804940683 4.665127423386177 3.2231790804940683 10.19966461508585 L 3.2231790804940683 27.37573007281108 C 3.2231790804940683 29.983960388890683 4.134999631266742 34.35221382885797 10.199665386373592 34.35221382885797 L 23.07117710834659 34.35221382885797 C 28.60571471856205 34.35221382885797 30.047663414226115 32.91026726451075 30.047663414226115 27.37573007281108 L 30.047663414226115 10.19966461508585 C 30.047663414226115 4.665127423386177 28.60571471856205 3.2231788367607273 23.07117710834659 3.2231788367607273 L 10.199665386373592 3.2231788367607273 Z" fill="rgb(231.62500709295273,0,194.56504851579666)"/>
        </svg>