<svg 
          width="13.931766510009766" 
          height="25.916522979736328" fill="none" 
          xmlns="http://www.w3.org/2000/svg">
          <path d="M 9.754354286856769 25.916522979736328 C 8.842533894586227 25.916522979736328 7.676254772249964 25.61965141954551 6.34033190427955 24.686626028575187 L 0.6785633544363011 20.721266315859896 C 0.2544608471383305 20.424394597678603 0 19.936677020965934 0 19.40654895504206 L 0 6.513812308496773 C 0 5.983684242572899 0.2544608471383305 5.49598786818201 0.6785633544363011 5.199094947678935 L 6.34033190427955 1.233737257241728 C 8.863741906437436 -0.526287886235667 10.708586215899722 -0.01736419596978095 11.577996335321798 0.42794336550311135 C 12.447406454743874 0.8944560609882728 13.931766510009766 2.103148478500951 13.931766510009766 5.177891361973324 L 13.931766510009766 20.721266315859896 C 13.931766510009766 23.796009199332268 12.447406454743874 25.025905739718176 11.577996335321798 25.471213301191067 C 11.17509896444806 25.70446964893365 10.53894392377811 25.916522979736328 9.754354286856769 25.916522979736328 Z M 3.201970323176717 18.558344858475095 L 8.185175518583666 22.035985698955816 C 9.139406120506477 22.693344505757114 9.817969348550381 22.756956795381562 10.093635964074918 22.608520936290915 C 10.390507716023688 22.46008507720027 10.708586531880709 21.86634298375672 10.708586531880709 20.721266315859896 L 10.708586531880709 5.199094947678935 C 10.708586531880709 4.032813177367936 10.369302579599456 3.460275175199522 10.093635964074918 3.3118393161088755 C 9.817969348550381 3.163403457018229 9.139406120506477 3.2270187800597987 8.185175518583666 3.8843775868610977 L 3.201970323176717 7.362018427341821 L 3.201970323176717 18.558344858475095 Z" fill="rgb(231.62500709295273,0,194.56504851579666)"/>
        </svg>